<?xml version="1.0" standalone="no"?>
<!DOCTYPE svg PUBLIC "-//W3C//DTD SVG 20010904//EN"
 "http://www.w3.org/TR/2001/REC-SVG-20010904/DTD/svg10.dtd">
<svg version="1.0" xmlns="http://www.w3.org/2000/svg"
 width="575.000000pt" height="339.000000pt" viewBox="0 0 575.000000 339.000000"
 preserveAspectRatio="xMidYMid meet">
<metadata>
Created by potrace 1.15, written by Peter Selinger 2001-2017
</metadata>
<g transform="translate(0.000000,339.000000) scale(0.100000,-0.100000)"
fill="#000000" stroke="none">
<path d="M1626 2243 c-37 -247 -70 -436 -88 -498 -16 -55 -31 -111 -34 -125
-8 -37 -36 -134 -41 -143 -3 -5 -29 31 -58 80 -43 72 -62 123 -111 286 -32
108 -63 197 -69 197 -5 0 -29 -36 -53 -80 -24 -44 -46 -80 -50 -80 -5 0 -32
81 -62 180 -52 171 -56 180 -80 180 -18 0 -21 -3 -11 -9 11 -7 4 -56 -39 -267
-29 -143 -54 -261 -55 -263 -2 -2 -11 23 -20 55 -9 33 -24 88 -35 124 -11 36
-24 86 -31 113 -6 26 -16 47 -23 47 -9 0 -90 -132 -210 -342 -26 -47 -28 -48
-76 -48 -55 0 -83 -8 -74 -21 6 -10 114 -12 138 -3 9 3 16 12 16 20 0 8 11 32
25 54 14 22 25 42 25 44 0 11 143 246 149 246 4 0 29 -82 57 -182 27 -101 54
-182 59 -181 6 1 35 125 66 275 32 152 59 266 63 257 4 -9 28 -87 54 -173 26
-87 52 -158 57 -159 6 -1 30 36 55 81 24 45 47 82 51 82 6 0 101 -313 103
-340 1 -8 4 -17 8 -20 3 -3 32 -50 65 -104 32 -55 63 -99 68 -98 6 0 24 49 41
109 17 59 41 144 54 188 19 67 111 616 123 738 4 36 17 65 17 36 0 -23 101
-1053 105 -1066 2 -6 13 -9 25 -6 13 4 17 9 11 13 -8 4 -2 37 18 106 16 54 37
132 47 172 10 39 22 72 25 72 15 0 98 -149 86 -154 -7 -3 -6 -5 4 -5 16 -1
111 -300 200 -633 l43 -158 186 0 187 0 13 87 c7 49 14 97 16 108 11 66 55
358 69 455 9 63 19 122 22 130 3 8 7 22 8 30 1 8 19 76 39 150 55 197 56 203
69 230 22 48 89 160 97 160 4 0 31 -80 59 -177 29 -98 65 -200 81 -228 66
-119 78 -143 74 -148 -8 -8 22 -16 32 -9 5 4 20 27 33 52 37 69 70 120 79 120
4 0 27 -35 51 -78 24 -42 48 -82 53 -89 10 -12 41 -6 33 6 -2 4 11 59 29 122
18 63 41 147 50 187 l18 72 53 0 c43 0 55 -4 59 -17 39 -139 110 -370 116
-376 22 -25 12 27 -41 202 -32 107 -56 198 -54 202 3 4 -2 10 -11 13 -22 8
-117 7 -130 -2 -9 -6 -32 -83 -90 -299 -10 -35 -21 -63 -25 -63 -4 0 -29 36
-56 80 -26 44 -52 80 -58 80 -6 0 -34 -41 -63 -91 -30 -50 -55 -89 -57 -87 -2
2 -25 41 -50 87 -58 104 -173 470 -152 483 7 5 -1 8 -20 8 -18 0 -32 -4 -30
-8 3 -12 -103 -192 -114 -192 -5 0 -6 -6 -4 -13 3 -6 -6 -50 -20 -97 -14 -47
-28 -93 -30 -103 -2 -10 -14 -52 -25 -95 -19 -67 -55 -283 -101 -595 -7 -48
-16 -87 -21 -87 -5 0 -6 -5 -3 -11 4 -5 2 -48 -5 -95 l-12 -84 -167 0 -168 0
-22 82 c-13 46 -25 90 -27 98 -16 71 -97 345 -160 539 -7 24 -11 47 -8 52 3 5
1 9 -3 9 -5 0 -35 45 -68 100 -32 55 -63 100 -69 100 -6 0 -31 -73 -56 -162
-38 -139 -45 -157 -52 -132 -4 16 -8 45 -8 64 0 19 -18 204 -40 410 -22 206
-40 386 -40 400 -1 71 -24 220 -34 220 -7 0 -32 -140 -70 -397z"/>
</g>
</svg>
